<?xml version="1.0" ?><svg style="enable-background:new 0 0 24 24;" version="1.1" viewBox="0 0 24 24" xml:space="preserve" xmlns="http://www.w3.org/2000/svg" xmlns:xlink="http://www.w3.org/1999/xlink"><style type="text/css">
	.st0{display:none;}
</style><g class="st0" id="grid"/><g id="icon"><path d="M22.774,1H20.5C20.224,1,20,1.224,20,1.5S20.224,2,20.5,2h2.274C22.898,2,23,2.102,23,2.226v20.549   C23,22.898,22.898,23,22.774,23H1.226C1.102,23,1,22.898,1,22.774V2.226C1,2.102,1.102,2,1.226,2H3.5C3.776,2,4,1.776,4,1.5   S3.776,1,3.5,1H1.226C0.55,1,0,1.55,0,2.226v20.549C0,23.45,0.55,24,1.226,24h21.548C23.45,24,24,23.45,24,22.774V2.226   C24,1.55,23.45,1,22.774,1z"/><path d="M4.566,2.774C3.979,2.774,3.5,3.252,3.5,3.84v16.868c0,0.588,0.479,1.066,1.066,1.066h14.867   c0.588,0,1.066-0.479,1.066-1.066V3.84c0-0.588-0.479-1.065-1.066-1.065h-0.956C18.363,1.779,17.526,1,16.5,1h-0.842   c-0.207-0.581-0.757-1-1.408-1h-4.5C9.099,0,8.549,0.419,8.342,1H7.5C6.474,1,5.637,1.779,5.523,2.774H4.566z M9.75,1h4.5   c0.276,0,0.5,0.225,0.5,0.5S14.526,2,14.25,2h-4.5c-0.276,0-0.5-0.225-0.5-0.5S9.474,1,9.75,1z M7.5,2h0.842   C8.549,2.581,9.099,3,9.75,3h4.5c0.651,0,1.201-0.419,1.408-1H16.5c0.551,0,1,0.448,1,1s-0.449,1-1,1h-9c-0.551,0-1-0.448-1-1   S6.949,2,7.5,2z M7.5,5h9c0.823,0,1.53-0.5,1.836-1.211L19.5,3.84l-0.066,16.935L4.5,20.708L4.566,3.774h1.09   C5.96,4.494,6.672,5,7.5,5z"/><path d="M8,8.774h8c0.276,0,0.5-0.224,0.5-0.5s-0.224-0.5-0.5-0.5H8c-0.276,0-0.5,0.224-0.5,0.5S7.724,8.774,8,8.774z"/><path d="M8,12.774h8c0.276,0,0.5-0.224,0.5-0.5s-0.224-0.5-0.5-0.5H8c-0.276,0-0.5,0.224-0.5,0.5S7.724,12.774,8,12.774z"/><path d="M8,16.774h8c0.276,0,0.5-0.224,0.5-0.5s-0.224-0.5-0.5-0.5H8c-0.276,0-0.5,0.224-0.5,0.5S7.724,16.774,8,16.774z"/></g></svg>